HIERARCHY
ROOT Hips
{
  OFFSET 4.45877 97.9592 -23.1345
  CHANNELS 6 Xposition Yposition Zposition Zrotation Xrotation Yrotation
  JOINT Spine
  {
    OFFSET 0 10.1816 0.1315
    CHANNELS 6 Xposition Yposition Zposition Zrotation Xrotation Yrotation
    JOINT Spine1
    {
      OFFSET 0 10.0835 -1.0008
      CHANNELS 6 Xposition Yposition Zposition Zrotation Xrotation Yrotation
      JOINT Spine2
      {
        OFFSET 0 9.1 -1.3734
        CHANNELS 6 Xposition Yposition Zposition Zrotation Xrotation Yrotation
        JOINT Neck
        {
          OFFSET 0 16.6717 -2.5162
          CHANNELS 6 Xposition Yposition Zposition Zrotation Xrotation Yrotation
          JOINT Head
          {
            OFFSET 0 9.6179 1.685
            CHANNELS 6 Xposition Yposition Zposition Zrotation Xrotation Yrotation
            JOINT HeadTop_End
            {
              OFFSET 0 17.8152 2.585
              CHANNELS 6 Xposition Yposition Zposition Zrotation Xrotation Yrotation
              End Site
              {
                OFFSET 0 0 0
              }
            }
            JOINT LeftEye
            {
              OFFSET 3.0676 6.4095 9.2836
              CHANNELS 6 Xposition Yposition Zposition Zrotation Xrotation Yrotation
              End Site
              {
                OFFSET 0 0 0
              }
            }
            JOINT RightEye
            {
              OFFSET -3.0676 6.4095 9.2835
              CHANNELS 6 Xposition Yposition Zposition Zrotation Xrotation Yrotation
              End Site
              {
                OFFSET 0 0 0
              }
            }
          }
        }
        JOINT LeftShoulder
        {
          OFFSET 4.5704 10.946 -2.628
          CHANNELS 6 Xposition Yposition Zposition Zrotation Xrotation Yrotation
          JOINT LeftArm
          {
            OFFSET 10.5924 -0.5246 -2.2321
            CHANNELS 6 Xposition Yposition Zposition Zrotation Xrotation Yrotation
            JOINT LeftForeArm
            {
              OFFSET 27.8415 -0.0001 0
              CHANNELS 6 Xposition Yposition Zposition Zrotation Xrotation Yrotation
              JOINT LeftHand
              {
                OFFSET 28.3288 0 0
                CHANNELS 6 Xposition Yposition Zposition Zrotation Xrotation Yrotation
                JOINT LeftHandThumb1
                {
                  OFFSET 2.4661 -1.575 2.6824
                  CHANNELS 6 Xposition Yposition Zposition Zrotation Xrotation Yrotation
                  JOINT LeftHandThumb2
                  {
                    OFFSET 3.2298 -1.8647 1.8647
                    CHANNELS 6 Xposition Yposition Zposition Zrotation Xrotation Yrotation
                    JOINT LeftHandThumb3
                    {
                      OFFSET 2.6526 -1.5315 1.5315
                      CHANNELS 6 Xposition Yposition Zposition Zrotation Xrotation Yrotation
                      End Site
                      {
                        OFFSET 1.9546 -1.1285 1.1285
                      }
                    }
                  }
                }
                JOINT LeftHandIndex1
                {
                  OFFSET 9.1093 -0.5171 2.2601
                  CHANNELS 6 Xposition Yposition Zposition Zrotation Xrotation Yrotation
                  JOINT LeftHandIndex2
                  {
                    OFFSET 3.6764 0 0
                    CHANNELS 6 Xposition Yposition Zposition Zrotation Xrotation Yrotation
                    JOINT LeftHandIndex3
                    {
                      OFFSET 2.8831 0 0
                      CHANNELS 6 Xposition Yposition Zposition Zrotation Xrotation Yrotation
                      End Site
                      {
                        OFFSET 2.3927 0 0
                      }
                    }
                  }
                }
                JOINT LeftHandMiddle1
                {
                  OFFSET 9.5334 0 0
                  CHANNELS 6 Xposition Yposition Zposition Zrotation Xrotation Yrotation
                  JOINT LeftHandMiddle2
                  {
                    OFFSET 3.6982 0 0
                    CHANNELS 6 Xposition Yposition Zposition Zrotation Xrotation Yrotation
                    JOINT LeftHandMiddle3
                    {
                      OFFSET 2.9509 0 0
                      CHANNELS 6 Xposition Yposition Zposition Zrotation Xrotation Yrotation
                      End Site
                      {
                        OFFSET 2.8339 0 0
                      }
                    }
                  }
                }
                JOINT LeftHandRing1
                {
                  OFFSET 9.1045 -0.0439 -1.8651
                  CHANNELS 6 Xposition Yposition Zposition Zrotation Xrotation Yrotation
                  JOINT LeftHandRing2
                  {
                    OFFSET 3.154 0 0
                    CHANNELS 6 Xposition Yposition Zposition Zrotation Xrotation Yrotation
                    JOINT LeftHandRing3
                    {
                      OFFSET 2.9377 0 0
                      CHANNELS 6 Xposition Yposition Zposition Zrotation Xrotation Yrotation
                      End Site
                      {
                        OFFSET 2.6475 0 0
                      }
                    }
                  }
                }
                JOINT LeftHandPinky1
                {
                  OFFSET 8.0778 -0.4887 -3.8061
                  CHANNELS 6 Xposition Yposition Zposition Zrotation Xrotation Yrotation
                  JOINT LeftHandPinky2
                  {
                    OFFSET 3.6 0 0
                    CHANNELS 6 Xposition Yposition Zposition Zrotation Xrotation Yrotation
                    JOINT LeftHandPinky3
                    {
                      OFFSET 2.1142 0 0
                      CHANNELS 6 Xposition Yposition Zposition Zrotation Xrotation Yrotation
                      End Site
                      {
                        OFFSET 1.9757 0 0
                      }
                    }
                  }
                }
              }
            }
          }
        }
        JOINT RightShoulder
        {
          OFFSET -4.57 10.9462 -2.628
          CHANNELS 6 Xposition Yposition Zposition Zrotation Xrotation Yrotation
          JOINT RightArm
          {
            OFFSET -10.5928 -0.5248 -2.2321
            CHANNELS 6 Xposition Yposition Zposition Zrotation Xrotation Yrotation
            JOINT RightForeArm
            {
              OFFSET -27.8415 0 0
              CHANNELS 6 Xposition Yposition Zposition Zrotation Xrotation Yrotation
              JOINT RightHand
              {
                OFFSET -28.3288 0 0.0001
                CHANNELS 6 Xposition Yposition Zposition Zrotation Xrotation Yrotation
                JOINT RightHandPinky1
                {
                  OFFSET -8.0767 -0.4885 -3.806
                  CHANNELS 6 Xposition Yposition Zposition Zrotation Xrotation Yrotation
                  JOINT RightHandPinky2
                  {
                    OFFSET -3.6 0 0.0001
                    CHANNELS 6 Xposition Yposition Zposition Zrotation Xrotation Yrotation
                    JOINT RightHandPinky3
                    {
                      OFFSET -2.1142 0 0
                      CHANNELS 6 Xposition Yposition Zposition Zrotation Xrotation Yrotation
                      End Site
                      {
                        OFFSET -1.9757 0 0
                      }
                    }
                  }
                }
                JOINT RightHandRing1
                {
                  OFFSET -9.1036 -0.0439 -1.8651
                  CHANNELS 6 Xposition Yposition Zposition Zrotation Xrotation Yrotation
                  JOINT RightHandRing2
                  {
                    OFFSET -3.154 0 0
                    CHANNELS 6 Xposition Yposition Zposition Zrotation Xrotation Yrotation
                    JOINT RightHandRing3
                    {
                      OFFSET -2.9377 0 0
                      CHANNELS 6 Xposition Yposition Zposition Zrotation Xrotation Yrotation
                      End Site
                      {
                        OFFSET -2.6475 0 0
                      }
                    }
                  }
                }
                JOINT RightHandMiddle1
                {
                  OFFSET -9.5325 0 0
                  CHANNELS 6 Xposition Yposition Zposition Zrotation Xrotation Yrotation
                  JOINT RightHandMiddle2
                  {
                    OFFSET -3.6982 0 0
                    CHANNELS 6 Xposition Yposition Zposition Zrotation Xrotation Yrotation
                    JOINT RightHandMiddle3
                    {
                      OFFSET -2.9509 0 0
                      CHANNELS 6 Xposition Yposition Zposition Zrotation Xrotation Yrotation
                      End Site
                      {
                        OFFSET -2.8339 0 0.0001
                      }
                    }
                  }
                }
                JOINT RightHandIndex1
                {
                  OFFSET -9.1083 -0.5168 2.2601
                  CHANNELS 6 Xposition Yposition Zposition Zrotation Xrotation Yrotation
                  JOINT RightHandIndex2
                  {
                    OFFSET -3.6764 0 0
                    CHANNELS 6 Xposition Yposition Zposition Zrotation Xrotation Yrotation
                    JOINT RightHandIndex3
                    {
                      OFFSET -2.8831 0 0
                      CHANNELS 6 Xposition Yposition Zposition Zrotation Xrotation Yrotation
                      End Site
                      {
                        OFFSET -2.3927 0 0
                      }
                    }
                  }
                }
                JOINT RightHandThumb1
                {
                  OFFSET -2.4648 -1.5727 2.6826
                  CHANNELS 6 Xposition Yposition Zposition Zrotation Xrotation Yrotation
                  JOINT RightHandThumb2
                  {
                    OFFSET -3.2298 -1.8647 1.8647
                    CHANNELS 6 Xposition Yposition Zposition Zrotation Xrotation Yrotation
                    JOINT RightHandThumb3
                    {
                      OFFSET -2.6526 -1.5314 1.5314
                      CHANNELS 6 Xposition Yposition Zposition Zrotation Xrotation Yrotation
                      End Site
                      {
                        OFFSET -1.9546 -1.1285 1.1285
                      }
                    }
                  }
                }
              }
            }
          }
        }
      }
    }
  }
  JOINT LeftUpLeg
  {
    OFFSET 8.2078 -6.7517 -1.5996
    CHANNELS 6 Xposition Yposition Zposition Zrotation Xrotation Yrotation
    JOINT LeftLeg
    {
      OFFSET 0 -44.3705 0.2846
      CHANNELS 6 Xposition Yposition Zposition Zrotation Xrotation Yrotation
      JOINT LeftFoot
      {
        OFFSET 0 -44.4279 -2.9822
        CHANNELS 6 Xposition Yposition Zposition Zrotation Xrotation Yrotation
        JOINT LeftToeBase
        {
          OFFSET 0 -8.7287 10.7106
          CHANNELS 6 Xposition Yposition Zposition Zrotation Xrotation Yrotation
          End Site
          {
            OFFSET 0 -0.0007 9.2781
          }
        }
      }
    }
  }
  JOINT RightUpLeg
  {
    OFFSET -8.2078 -6.7517 -1.5996
    CHANNELS 6 Xposition Yposition Zposition Zrotation Xrotation Yrotation
    JOINT RightLeg
    {
      OFFSET 0 -44.3705 0.2862
      CHANNELS 6 Xposition Yposition Zposition Zrotation Xrotation Yrotation
      JOINT RightFoot
      {
        OFFSET 0 -44.4277 -2.9838
        CHANNELS 6 Xposition Yposition Zposition Zrotation Xrotation Yrotation
        JOINT RightToeBase
        {
          OFFSET 0 -8.7287 10.7106
          CHANNELS 6 Xposition Yposition Zposition Zrotation Xrotation Yrotation
          End Site
          {
            OFFSET 0 -0.0007 9.2781
          }
        }
      }
    }
  }
}
MOTION
Frames:	4
Frame Time:	0.0333333
1.42632 99.245 -20.8461 2.40469 6.96595 -27.4553 1.77636e-015 10.1816 0.1315 -1.40797 1.28425 1.35718 1.77636e-015 10.0835 -1.0008 0.155591 0.153096 0.010001 0 9.1 -1.3734 0.152023 0.153095 0.00986058 0 16.6717 -2.5162 -3.60728 1.34183 3.29025 0 9.6179 1.685 -4.62534 7.96679 7.81461 0 17.8152 2.585 -7.95139e-016 0 -1.59028e-015 3.0676 6.4095 9.2836 -7.95139e-016 0 -1.59028e-015 -3.0676 6.4095 9.2835 -7.95139e-016 0 -1.59028e-015 4.5704 10.946 -2.628 -32.2068 2.23829 -3.73754 10.5924 -0.5246 -2.2321 -24.7821 -1.25427 1.65632 27.8415 -0.0001 0 32.132 14.1995 -67.5539 28.3288 1.42109e-014 2.22045e-015 21.1245 -5.02117 2.95413 2.4661 -1.575 2.6824 -6.93883 0.882501 -8.32132 3.2298 -1.8647 1.8647 -11.794 4.87047 51.7805 2.6526 -1.5315 1.5315 29.8212 20.1145 37.3378 9.1093 -0.5171 2.2601 -86.1744 -7.79551 0.922051 3.6764 -3.55271e-015 -1.77636e-015 -107.984 -7.65677 5.56854 2.8831 0 -1.33227e-015 -51.5412 -2.21309 4.58214 9.5334 -1.42109e-014 -3.55271e-015 -84.0129 -7.58418 3.57529 3.6982 -1.77636e-015 0 -107.984 -7.65678 5.56855 2.9509 0 1.77636e-015 -51.5412 -2.21308 4.58212 9.1045 -0.0439 -1.8651 -74.9632 -6.60705 6.33203 3.154 -3.55271e-015 0 -107.984 -7.65678 5.56856 2.9377 0 1.77636e-015 -51.5412 -2.21308 4.58214 8.0778 -0.4887 -3.8061 -78.1217 -6.95376 6.28104 3.6 -3.55271e-015 4.44089e-015 -107.984 -7.65678 5.56855 2.1142 -1.42109e-014 0 -51.5412 -2.21311 4.58214 -4.57 10.9462 -2.628 23.2784 6.15047 18.7999 -10.5928 -0.5248 -2.2321 44.842 19.6948 -8.67201 -27.8415 0 0 -14.6933 -1.69606 61.5711 -28.3288 7.10543e-015 0.0001 -31.7438 -8.60458 13.5486 -8.0767 -0.4885 -3.806 77.6273 -5.87327 -5.07681 -3.6 1.77636e-015 0.0001 108.225 -6.09377 -4.41268 -2.1142 0 0 51.6594 -1.76353 -3.64227 -9.1036 -0.0439 -1.8651 74.4625 -5.59188 -5.1353 -3.154 0 7.10543e-015 108.225 -6.09528 -4.41218 -2.9377 0 -7.10543e-015 51.6594 -1.76353 -3.64226 -9.5325 0 -7.10543e-015 83.4744 -6.3777 -2.36886 -3.6982 4.88498e-015 0 108.225 -6.0953 -4.41218 -2.9509 0 7.10543e-015 51.6594 -1.76353 -3.64429 -9.1083 -0.5168 2.2601 85.5841 -6.5431 0.27678 -3.6764 3.55271e-015 -7.10543e-015 108.225 -6.09528 -4.4122 -2.8831 1.42109e-014 0 51.6594 -1.76352 -3.64226 -2.4648 -1.5727 2.6826 7.51636 -0.00319326 10.4393 -3.2298 -1.8647 1.8647 11.2896 4.66998 -53.4413 -2.6526 -1.5314 1.5314 -28.3487 23.4492 -43.4372 8.2078 -6.7517 -1.5996 10.7069 -30.5217 6.89221 -1.77636e-015 -44.3705 0.2846 5.57117 34.3224 14.1818 0 -44.4279 -2.9822 -14.1456 -5.19781 -5.74409 0 -8.7287 10.7106 -2.37136e-006 -0.080112 3.9173e-006 -8.2078 -6.7517 -1.5996 -25.4849 0.0033594 -8.5859 1.42109e-014 -44.3705 0.2862 13.3438 38.2957 2.01449 0 -44.4277 -2.9838 11.0783 1.27081 -15.5579 0 -8.7287 10.7106 -4.01274e-006 -10.5682 2.52945e-006 
1.87259 97.704 -19.3278 2.46523 6.08796 -27.9316 0 10.1816 0.1315 -1.3745 0.574763 1.03302 0 10.0835 -1.0008 0.151188 0.0791848 0.0152869 0 9.1 -1.3734 0.149317 0.0791837 0.0152196 0 16.6717 -2.5162 -2.78465 1.27851 3.52598 -3.55271e-015 9.6179 1.685 -4.49722 9.28389 8.29325 0 17.8152 2.585 -2.64834e-031 3.18055e-015 4.77083e-015 3.0676 6.4095 9.2836 -2.64834e-031 3.18055e-015 4.77083e-015 -3.0676 6.4095 9.2835 -2.64834e-031 3.18055e-015 4.77083e-015 4.5704 10.946 -2.628 -33.1684 1.21551 0.0620359 10.5924 -0.5246 -2.2321 -29.0014 -3.24359 12.4706 27.8415 -0.0001 0 31.5068 13.7388 -67.7945 28.3288 -1.42109e-014 -2.66454e-015 20.9942 -5.00284 3.05123 2.4661 -1.575 2.6824 -6.93883 0.882491 -8.32128 3.2298 -1.8647 1.8647 -11.794 4.87048 51.7804 2.6526 -1.5315 1.5315 29.8212 20.1145 37.3379 9.1093 -0.5171 2.2601 -86.1744 -7.79551 0.922055 3.6764 0 -5.32907e-015 -107.984 -7.65678 5.56855 2.8831 0 8.88178e-016 -51.5412 -2.2131 4.58213 9.5334 1.42109e-014 8.88178e-016 -84.0129 -7.5842 3.57525 3.6982 1.77636e-015 -1.77636e-015 -107.984 -7.6568 5.56855 2.9509 -1.42109e-014 1.77636e-015 -51.5412 -2.21309 4.58213 9.1045 -0.0439 -1.8651 -74.9632 -6.60705 6.33204 3.154 -1.77636e-015 1.77636e-015 -107.984 -7.65677 5.56855 2.9377 0 3.55271e-015 -51.5412 -2.21311 4.58213 8.0778 -0.4887 -3.8061 -78.1217 -6.95376 6.28104 3.6 -1.77636e-015 -1.77636e-015 -107.984 -7.65677 5.56857 2.1142 0 0 -51.5412 -2.2131 4.58212 -4.57 10.9462 -2.628 23.2026 5.27246 14.8015 -10.5928 -0.5248 -2.2321 55.0554 26.1691 -22.7679 -27.8415 -7.10543e-015 -1.42109e-014 -15.7678 -5.13896 65.3663 -28.3288 -7.10543e-015 0.0001 -29.7435 -8.75931 14.9363 -8.0767 -0.4885 -3.806 77.6273 -5.87328 -5.07682 -3.6 0 0.0001 108.225 -6.09377 -4.41267 -2.1142 1.42109e-014 3.55271e-015 51.6594 -1.76352 -3.64227 -9.1036 -0.0439 -1.8651 74.4625 -5.59188 -5.13529 -3.154 3.55271e-015 3.55271e-015 108.225 -6.09528 -4.41219 -2.9377 1.42109e-014 -1.06581e-014 51.6594 -1.76352 -3.64226 -9.5325 0 0 83.4744 -6.37771 -2.36885 -3.6982 0 7.10543e-015 108.226 -6.0953 -4.41219 -2.9509 1.42109e-014 -1.06581e-014 51.6594 -1.76353 -3.64429 -9.1083 -0.5168 2.2601 85.5841 -6.5431 0.276771 -3.6764 0 -7.10543e-015 108.225 -6.09528 -4.41218 -2.8831 0 -7.10543e-015 51.6594 -1.76351 -3.64226 -2.4648 -1.5727 2.6826 7.51637 -0.0031955 10.4393 -3.2298 -1.8647 1.8647 11.2896 4.67 -53.4413 -2.6526 -1.5314 1.5314 -28.3487 23.4492 -43.4372 8.2078 -6.7517 -1.5996 8.96525 -30.1842 6.90616 1.77636e-015 -44.3705 0.2846 6.4007 37.0785 13.9227 -7.10543e-015 -44.4279 -2.9822 -12.7058 -9.11898 -5.57875 3.55271e-015 -8.7287 10.7106 -5.65138e-006 -0.0641181 1.28958e-005 -8.2078 -6.7517 -1.5996 -26.1657 5.50335 -8.17795 0 -44.3705 0.2862 10.6894 32.0729 1.99127 -7.10543e-015 -44.4277 -2.9838 12.8819 -0.0609313 -15.4382 0 -8.7287 10.7106 1.00828e-005 -18.3151 -2.04401e-005 
2.30255 96.8601 -18.3708 2.38121 5.51122 -27.2936 0 10.1816 0.1315 -1.49646 0.327253 0.843738 1.77636e-015 10.0835 -1.0008 0.143193 0.0669007 0.0212153 0 9.1 -1.3734 0.141734 0.0668803 0.021135 -1.77636e-015 16.6717 -2.5162 -1.84906 0.898891 3.61359 -1.77636e-015 9.6179 1.685 -4.393 9.74892 8.46334 0 17.8152 2.585 -0 0 1.59028e-015 3.0676 6.4095 9.2836 -0 0 1.59028e-015 -3.0676 6.4095 9.2835 -0 0 1.59028e-015 4.5704 10.946 -2.628 -32.1257 0.692802 1.63531 10.5924 -0.5246 -2.2321 -32.428 -5.65342 20.0843 27.8415 -0.0001 0 29.7927 12.1291 -68.4581 28.3288 1.42109e-014 4.44089e-015 20.237 -5.01955 3.10628 2.4661 -1.575 2.6824 -6.93883 0.882495 -8.32129 3.2298 -1.8647 1.8647 -11.794 4.87048 51.7804 2.6526 -1.5315 1.5315 29.8212 20.1145 37.3379 9.1093 -0.5171 2.2601 -86.1744 -7.79552 0.922054 3.6764 0 -1.77636e-015 -107.984 -7.65678 5.56855 2.8831 0 -3.55271e-015 -51.5412 -2.2131 4.58213 9.5334 0 -1.33227e-015 -84.0129 -7.58419 3.57529 3.6982 -7.10543e-015 3.55271e-015 -107.984 -7.65679 5.56855 2.9509 -1.42109e-014 1.77636e-015 -51.5412 -2.21309 4.58211 9.1045 -0.0439 -1.8651 -74.9632 -6.60706 6.33203 3.154 1.77636e-015 -1.77636e-015 -107.984 -7.65678 5.56855 2.9377 1.42109e-014 0 -51.5412 -2.21309 4.58213 8.0778 -0.4887 -3.8061 -78.1217 -6.95376 6.28104 3.6 -8.88178e-016 -7.10543e-015 -107.984 -7.65678 5.56856 2.1142 -1.42109e-014 3.55271e-015 -51.5412 -2.21308 4.58213 -4.57 10.9462 -2.628 22.0902 4.39521 11.9696 -10.5928 -0.5248 -2.2321 63.8748 27.1533 -33.9213 -27.8415 -8.88178e-016 0 -15.9674 -8.16245 68.1188 -28.3288 1.42109e-014 0.0001 -28.3879 -9.00599 16.4623 -8.0767 -0.4885 -3.806 77.6273 -5.87328 -5.07681 -3.6 0 0.0001 108.225 -6.09377 -4.41269 -2.1142 0 7.10543e-015 51.6594 -1.76352 -3.64226 -9.1036 -0.0439 -1.8651 74.4625 -5.59189 -5.1353 -3.154 3.55271e-015 1.06581e-014 108.225 -6.09529 -4.4122 -2.9377 0 -7.10543e-015 51.6594 -1.76352 -3.64227 -9.5325 0 0 83.4744 -6.37769 -2.36885 -3.6982 7.10543e-015 -1.42109e-014 108.226 -6.0953 -4.41217 -2.9509 0 0 51.6594 -1.76351 -3.64429 -9.1083 -0.5168 2.2601 85.5841 -6.5431 0.276775 -3.6764 -7.10543e-015 0 108.225 -6.09528 -4.41219 -2.8831 7.10543e-015 0 51.6594 -1.76352 -3.64227 -2.4648 -1.5727 2.6826 7.51638 -0.00319902 10.4393 -3.2298 -1.8647 1.8647 11.2896 4.66999 -53.4413 -2.6526 -1.5314 1.5314 -28.3487 23.4492 -43.4372 8.2078 -6.7517 -1.5996 8.41571 -31.1449 6.83325 -1.77636e-015 -44.3705 0.2846 6.15251 40.8604 12.48 3.55271e-015 -44.4279 -2.9822 -12.3883 -11.7408 -5.28575 0 -8.7287 10.7106 1.95115e-006 -0.21549 -4.22554e-006 -8.2078 -6.7517 -1.5996 -25.3319 7.33241 -8.29153 0 -44.3705 0.2862 10.0334 30.7277 1.36947 0 -44.4277 -2.9838 10.0727 -1.6721 -15.1567 1.42109e-014 -8.7287 10.7106 -4.13594e-007 -22.945 -2.31941e-006 
2.70535 97.1033 -18.1268 2.03925 5.43645 -25.6934 -8.88178e-016 10.1816 0.1315 -1.79252 0.605833 0.823323 1.77636e-015 10.0835 -1.0008 0.146161 0.133172 0.0323847 -1.77636e-015 9.1 -1.3734 0.143486 0.133098 0.0323507 -1.77636e-015 16.6717 -2.5162 -0.962417 0.19842 3.56414 0 9.6179 1.685 -4.2729 9.4354 8.42938 1.77636e-015 17.8152 2.585 7.95139e-016 6.36111e-015 -4.77083e-015 3.0676 6.4095 9.2836 7.95139e-016 6.36111e-015 -4.77083e-015 -3.0676 6.4095 9.2835 7.95139e-016 6.36111e-015 -4.77083e-015 4.5704 10.946 -2.628 -30.2466 0.649579 1.58113 10.5924 -0.5246 -2.2321 -34.5738 -6.49006 23.0002 27.8415 -0.0001 0 27.9873 9.30185 -70.2404 28.3288 0 6.21725e-015 19.3847 -5.08451 2.95685 2.4661 -1.575 2.6824 -6.93883 0.882502 -8.32131 3.2298 -1.8647 1.8647 -11.794 4.87048 51.7804 2.6526 -1.5315 1.5315 29.8212 20.1145 37.3379 9.1093 -0.5171 2.2601 -86.1744 -7.7955 0.922065 3.6764 0 4.44089e-015 -107.984 -7.65677 5.56855 2.8831 1.42109e-014 3.55271e-015 -51.5412 -2.21309 4.58212 9.5334 0 5.9952e-015 -84.0129 -7.58416 3.57527 3.6982 3.55271e-015 0 -107.984 -7.6568 5.56854 2.9509 -1.42109e-014 0 -51.5412 -2.21309 4.58213 9.1045 -0.0439 -1.8651 -74.9632 -6.60704 6.33203 3.154 -4.44089e-016 1.77636e-015 -107.984 -7.65677 5.56855 2.9377 0 -3.55271e-015 -51.5412 -2.2131 4.58213 8.0778 -0.4887 -3.8061 -78.1217 -6.95377 6.28103 3.6 -8.88178e-016 -3.55271e-015 -107.984 -7.65678 5.56856 2.1142 0 0 -51.5412 -2.2131 4.58213 -4.57 10.9462 -2.628 21.1968 3.88512 10.623 -10.5928 -0.5248 -2.2321 66.8286 24.5704 -38.4234 -27.8415 -8.88178e-016 -1.42109e-014 -15.126 -10.4964 70.3976 -28.3288 1.42109e-014 0.0001 -27.7516 -9.27675 17.7903 -8.0767 -0.4885 -3.806 77.6273 -5.87328 -5.07682 -3.6 0 0.0001 108.225 -6.09377 -4.41268 -2.1142 0 3.55271e-015 51.6594 -1.76352 -3.64227 -9.1036 -0.0439 -1.8651 74.4625 -5.59188 -5.1353 -3.154 0 -3.55271e-015 108.225 -6.09528 -4.4122 -2.9377 1.42109e-014 1.06581e-014 51.6594 -1.76353 -3.64226 -9.5325 0 -1.42109e-014 83.4744 -6.3777 -2.36887 -3.6982 -7.10543e-015 0 108.225 -6.0953 -4.41218 -2.9509 0 -3.55271e-015 51.6594 -1.76352 -3.6443 -9.1083 -0.5168 2.2601 85.5841 -6.54311 0.276764 -3.6764 0 0 108.225 -6.09527 -4.41219 -2.8831 -7.10543e-015 7.10543e-015 51.6594 -1.76353 -3.64226 -2.4648 -1.5727 2.6826 7.51636 -0.00319311 10.4393 -3.2298 -1.8647 1.8647 11.2896 4.66998 -53.4413 -2.6526 -1.5314 1.5314 -28.3487 23.4492 -43.4372 8.2078 -6.7517 -1.5996 9.06849 -31.0546 6.87004 1.77636e-015 -44.3705 0.2846 4.08821 40.6859 10.7711 3.55271e-015 -44.4279 -2.9822 -10.6223 -12.3096 -4.5839 0 -8.7287 10.7106 1.40135e-006 -0.236132 -2.63131e-006 -8.2078 -6.7517 -1.5996 -23.6321 3.86532 -8.54521 7.10543e-015 -44.3705 0.2862 12.7838 38.3002 5.08368 -7.10543e-015 -44.4277 -2.9838 7.32091 -4.16548 -14.784 0 -8.7287 10.7106 -2.78962e-006 -20.113 1.88312e-005 
